<svg xmlns="http://www.w3.org/2000/svg" viewBox="0 0 924.09 555.59" width="924" height="556" shape-rendering="geometricPrecision"><rect y="370.39" width="924.09" height="185.2" transform="translate(924.09 925.98) rotate(180)" fill="#340c46"/><rect y="185.2" width="924.09" height="185.2" transform="translate(924.09 555.59) rotate(180)" fill="#e50051"/><rect y="0" width="924.09" height="185.2" transform="translate(924.09 185.2) rotate(180)" fill="#009fe3"/><polygon points="185.2 0 0 0 0 555.59 370.39 185.2 185.2 0" fill="#fff"/><path d="M89.62,94.72h0c-23.89,23.89-23.89,62.64,0,86.53l3.82,3.82h0s-4.07,4.07-4.07,4.07c-23.89,23.89-23.89,62.64,0,86.53h0c23.89,23.89,62.64,23.89,86.53,0l4.07-4.07,86.53-86.53,.79-.79-87.09-85.52-.23-.23-3.82-3.82c-23.89-23.89-62.64-23.89-86.53,0Z" fill="#fcbf00"/></svg>
